<?xml version="1.0" encoding="UTF-8"?>
<svg version="1.1" xmlns="http://www.w3.org/2000/svg" width="512" height="512">
<path d="M0 0 C168.96 0 337.92 0 512 0 C512 168.96 512 337.92 512 512 C343.04 512 174.08 512 0 512 C0 343.04 0 174.08 0 0 Z " fill="#FEE300" transform="translate(0,0)"/>
<path d="M0 0 C33.99 0 67.98 0 103 0 C103 33.99 103 67.98 103 103 C97.65244727 98.98933545 94.0701577 96.30188607 89.9375 91.5 C86.68657196 87.81660905 83.44855975 84.5483612 79.64453125 81.45703125 C77.08686715 79.19097731 74.97791789 76.56441887 72.7734375 73.9609375 C70.50532306 71.45302241 68.01583915 69.3400682 65.3828125 67.2265625 C64 66 64 66 63 64 C50.64993054 69.07574283 42.85645515 91.11395344 38 102.59765625 C35.57577307 108.6359957 33.48828284 114.50666645 33.140625 121.0625 C32.9893031 123.14737948 32.55083044 124.98553441 32 127 C26.39377713 148.46262936 30.58050584 172.52397858 38 193 C38.35707031 194.00933594 38.71414063 195.01867187 39.08203125 196.05859375 C44.75297357 210.82709018 53.50648438 223.31367308 64 235 C64.86828577 236.04772391 65.73289694 237.0985043 66.59375 238.15234375 C69.74699645 241.88402665 73.25702533 244.87975032 77 248 C77.71800781 248.61746094 78.43601562 249.23492187 79.17578125 249.87109375 C79.94277344 250.51175781 80.70976562 251.15242187 81.5 251.8125 C82.32242188 252.50859375 83.14484375 253.2046875 83.9921875 253.921875 C86.5265331 255.67287741 88.37181641 256.59395159 91.1953125 257.640625 C96.0278533 259.62739535 100.20470993 261.39639165 103 266 C105.0739966 276.11321598 103.9638687 286.79967414 103 297 C98.84480947 296.52151971 95.41438965 296.04140535 91.765625 293.9609375 C91.03239014 293.5491626 90.29915527 293.1373877 89.54370117 292.71313477 C88.40831909 292.05075806 88.40831909 292.05075806 87.25 291.375 C86.45505127 290.91988037 85.66010254 290.46476074 84.84106445 289.99584961 C82.55255773 288.67732142 80.27516237 287.34138579 78 286 C76.95714844 285.39542969 75.91429687 284.79085938 74.83984375 284.16796875 C67.22500294 279.55869103 60.68364548 273.83267735 54 268 C52.709344 266.93627253 51.41790451 265.87349338 50.125 264.8125 C47.02223823 262.14534764 44.38124968 259.16452291 41.73828125 256.046875 C40.63346553 254.74592345 39.50778908 253.46219234 38.35546875 252.203125 C26.5688242 239.28474175 18.70069944 224.59251972 11 209 C10.6592041 208.33500488 10.3184082 207.67000977 9.96728516 206.98486328 C-3.23196214 181.17607583 -4.90308047 144.79162267 2 117 C2.27762386 115.56143401 2.54675828 114.12121075 2.80859375 112.6796875 C4.7986643 102.10173222 8.24736561 92.81213169 12.95751953 83.15087891 C13.94836331 81.10653845 14.89811442 79.04779128 15.83984375 76.98046875 C20.65385667 66.64419793 26.86826161 57.43927744 33.47949219 48.17138672 C35.36573386 45.47770762 37.18319008 42.74085175 39 40 C33.77074664 34.74545324 28.53762526 29.49478234 23.30175781 24.24682617 C21.51993287 22.45996323 19.73900522 20.67220506 17.95898438 18.88354492 C15.40468278 16.31715448 12.84720299 13.75396943 10.2890625 11.19140625 C9.49005524 10.3872377 8.69104797 9.58306915 7.86782837 8.75453186 C7.12721161 8.01383957 6.38659485 7.27314728 5.62353516 6.51000977 C4.97067535 5.85492935 4.31781555 5.19984894 3.64517212 4.5249176 C2.06107407 2.91385416 2.06107407 2.91385416 0 2 C0 1.34 0 0.68 0 0 Z " fill="#030300" transform="translate(257,107)"/>
<path d="M0 0 C9.57 0 19.14 0 29 0 C29 9.9 29 19.8 29 30 C38.9 30 48.8 30 59 30 C59 39.57 59 49.14 59 59 C49.1 59 39.2 59 29 59 C29 68.9 29 78.8 29 89 C19.43 89 9.86 89 0 89 C0 79.1 0 69.2 0 59 C-9.9 59 -19.8 59 -30 59 C-30 49.76 -30 40.52 -30 31 C-20.1 31 -10.2 31 0 31 C0 20.77 0 10.54 0 0 Z " fill="#010100" transform="translate(376,256)"/>
<path d="M0 0 C3 1 3 1 4.10327148 2.69897461 C4.43915283 3.42608643 4.77503418 4.15319824 5.12109375 4.90234375 C5.4967749 5.70599365 5.87245605 6.50964355 6.25952148 7.33764648 C6.64825439 8.19559814 7.0369873 9.0535498 7.4375 9.9375 C7.84363525 10.8025415 8.24977051 11.66758301 8.66821289 12.55883789 C10.71464085 16.96343977 12.48401182 21.29751851 13.9375 25.9375 C14.94090034 28.47653912 15.49334171 29.67034024 17.7890625 31.1640625 C20.09344313 32.10819843 20.09344313 32.10819843 22.65234375 32.86328125 C27.32709143 34.45062264 31.68332862 36.60632667 36.125 38.75 C37.81505867 39.55738691 39.50515949 40.3646856 41.1953125 41.171875 C42.46374204 41.78083281 43.73205143 42.39004137 45 43 C44.01 43.495 44.01 43.495 43 44 C43 44.66 43 45.32 43 46 C42.46375 46.20753906 41.9275 46.41507812 41.375 46.62890625 C38.57375899 47.73005198 35.78608811 48.86099139 33 50 C32.3414502 50.26796387 31.68290039 50.53592773 31.00439453 50.81201172 C28.85138111 51.69488077 26.7065378 52.595575 24.5625 53.5 C23.86447266 53.78431885 23.16644531 54.0686377 22.44726562 54.36157227 C18.61952902 55.99730538 16.05014629 57.31263441 14 61 C13.32586625 62.78645442 12.65698487 64.57513095 12.01953125 66.375 C10.64055907 69.92545711 9.04779852 73.36191929 7.4375 76.8125 C6.97972168 77.80020386 6.97972168 77.80020386 6.51269531 78.80786133 C5.15745412 81.69461412 3.77282422 84.34076367 2 87 C1.34 87 0.68 87 0 87 C-0.43570313 85.91203125 -0.87140625 84.8240625 -1.3203125 83.703125 C-2.55378503 80.63607436 -3.82722783 77.58889335 -5.12109375 74.546875 C-6.25432147 71.87247981 -7.22245656 69.29383895 -8.09765625 66.515625 C-10.55341703 59.72047331 -13.86837047 57.12767779 -20.21801758 54.12109375 C-23.66508757 52.62083383 -27.13914632 51.22263357 -30.65576172 49.89404297 C-32.77721249 49.08496645 -34.85990345 48.22238212 -36.94140625 47.31640625 C-39.9576156 45.96713901 -39.9576156 45.96713901 -43 45 C-42 42 -42 42 -38.859375 40.38671875 C-37.49314488 39.81177483 -36.12306081 39.24593465 -34.75 38.6875 C-34.03070313 38.37611084 -33.31140625 38.06472168 -32.5703125 37.74389648 C-29.18217204 36.28066577 -25.83194171 34.94386138 -22.328125 33.7734375 C-15.10316489 31.14463746 -11.78054558 28.21312491 -8.5 21.4375 C-7.24495185 18.65657412 -6.1056401 15.84316947 -5 13 C-4.46919629 11.68862135 -3.93796487 10.37741572 -3.40625 9.06640625 C-2.2205843 6.05942629 -1.08440243 3.04466836 0 0 Z " fill="#050500" transform="translate(195,302)"/>
<path d="M0 0 C2.09574579 2.65753459 3.72139766 5.23820918 5.15625 8.30078125 C5.53910156 9.11353516 5.92195313 9.92628906 6.31640625 10.76367188 C6.90228516 12.0253418 6.90228516 12.0253418 7.5 13.3125 C8.08587891 14.55676758 8.08587891 14.55676758 8.68359375 15.82617188 C9.25787109 17.05110352 9.25787109 17.05110352 9.84375 18.30078125 C10.41887329 19.50347656 10.41887329 19.50347656 11.00561523 20.73046875 C12 23 12 23 13.00390625 26.70703125 C16.30306425 32.14967351 21.76334826 33.86093389 27.4375 36.375 C28.58283203 36.90738281 29.72816406 37.43976563 30.90820312 37.98828125 C37.2778308 40.9935468 37.2778308 40.9935468 44 43 C43 46 43 46 39.5078125 47.82421875 C38.05166401 48.45645873 36.59044244 49.07711137 35.125 49.6875 C34.39152344 50.00783203 33.65804687 50.32816406 32.90234375 50.65820312 C27.41984275 53 27.41984275 53 24 53 C24 53.66 24 54.32 24 55 C23.31292969 55.10054687 22.62585938 55.20109375 21.91796875 55.3046875 C19.00385812 55.91335725 16.63219565 56.59816291 14 58 C12.70573786 60.30453151 12.29753432 62.38582109 11.76953125 64.97265625 C10.83058996 68.66646081 9.24445059 71.88656353 7.5 75.25 C6.9121875 76.38953125 6.324375 77.5290625 5.71875 78.703125 C5.1515625 79.79109375 4.584375 80.8790625 4 82 C2.99635204 83.99817186 1.9951427 85.99757871 1 88 C0.34 88 -0.32 88 -1 88 C-1.25652344 87.25878906 -1.51304687 86.51757812 -1.77734375 85.75390625 C-7.16093141 69.21693538 -7.16093141 69.21693538 -17.65234375 56.08984375 C-20.4947683 54.88593428 -20.4947683 54.88593428 -23.515625 54.046875 C-27.9968673 52.70049278 -32.04753164 50.72443746 -36.25 48.6875 C-37.73400142 47.98228624 -39.21834597 47.27779383 -40.703125 46.57421875 C-41.79109375 46.05472656 -42.8790625 45.53523438 -44 45 C-42.75 43.5 -42.75 43.5 -41 42 C-39.68 42 -38.36 42 -37 42 C-37 41.34 -37 40.68 -37 40 C-35.4840625 39.4740625 -35.4840625 39.4740625 -33.9375 38.9375 C-32.85082031 38.50050781 -32.85082031 38.50050781 -31.7421875 38.0546875 C-29 37 -29 37 -25.4453125 35.9453125 C-19.03702316 33.79535059 -14.51547314 31.5707827 -11.20703125 25.4453125 C-9.19612 21.16047481 -7.50129588 16.76811581 -5.87841797 12.32373047 C-4.7580882 9.36005655 -3.39383053 6.56180715 -1.9375 3.75 C-1.36322266 2.62851563 -1.36322266 2.62851563 -0.77734375 1.484375 C-0.52082031 0.99453125 -0.26429688 0.5046875 0 0 Z " fill="#050400" transform="translate(196,152)"/>
<path d="M0 0 C0.66 0 1.32 0 2 0 C2.23074219 0.60585937 2.46148437 1.21171875 2.69921875 1.8359375 C3.76447502 4.57276192 4.87384847 7.28766771 6 10 C6.37382812 10.91910156 6.74765625 11.83820313 7.1328125 12.78515625 C9.53616568 18.22533159 9.53616568 18.22533159 14.125 21.8125 C14.99705078 22.07933594 14.99705078 22.07933594 15.88671875 22.3515625 C18.69640513 23.21368438 21.27362581 24.44960211 23.9375 25.6875 C24.89527344 26.12449219 25.85304687 26.56148438 26.83984375 27.01171875 C27.55269531 27.33785156 28.26554687 27.66398437 29 28 C26.7965866 30.39865256 24.60460443 31.94294304 21.75 33.5 C21.02296875 33.9021875 20.2959375 34.304375 19.546875 34.71875 C17 36 17 36 13.4453125 37.19140625 C8.96322782 39.54424662 7.95664404 41.88891729 6.125 46.4375 C5.83109375 47.10587891 5.5371875 47.77425781 5.234375 48.46289062 C3.88516107 51.58526872 2.6666985 54.65796007 2 58 C-1 57 -1 57 -2.07495117 55.35766602 C-2.39439697 54.66342529 -2.71384277 53.96918457 -3.04296875 53.25390625 C-3.39423828 52.49916016 -3.74550781 51.74441406 -4.10742188 50.96679688 C-4.46384766 50.17337891 -4.82027344 49.37996094 -5.1875 48.5625 C-5.55552734 47.77294922 -5.92355469 46.98339844 -6.30273438 46.16992188 C-9 40.2999913 -9 40.2999913 -9 38 C-9.66386719 37.91878906 -10.32773438 37.83757812 -11.01171875 37.75390625 C-14.98331482 36.75192188 -18.24584559 34.91366546 -21.8125 32.9375 C-22.50537109 32.56044922 -23.19824219 32.18339844 -23.91210938 31.79492188 C-25.61128985 30.86916148 -27.30609425 29.93537688 -29 29 C-25.71868414 26.31528702 -22.28091547 24.58335696 -18.4375 22.8125 C-17.30183594 22.28269531 -16.16617188 21.75289063 -14.99609375 21.20703125 C-12 20 -12 20 -9 20 C-8.7525 19.154375 -8.505 18.30875 -8.25 17.4375 C-7.11554922 14.31776035 -5.71470261 11.65683247 -4.01953125 8.8125 C-2.42301983 5.97425748 -1.22978349 3.01296955 0 0 Z " fill="#090800" transform="translate(151,242)"/>
</svg>